# xmcd CD database file
#
# Track frame offsets:
#	150
#	6227
#	35422
#	74410
#	103070
#	131600
#	154447
#	186990
#	215855
#
# Disc length: 3240 seconds
#
# Revision: 0
# Processed by: cddbd v1.5PL3 Copyright (c) Steve Scherf et al.
# Submitted via: CDex 1.51
#
DISCID=890ca609
DTITLE=Billy Childs - I've Known Rivers
DYEAR=1995
DGENRE=Jazz
TTITLE0=I've Known Rivers (Poem)
TTITLE1=I've Known Rivers (Song)
TTITLE2=The Starry Night
TTITLE3=Lament
TTITLE4=The Way Of The New World
TTITLE5=This Moment
TTITLE6=Realism
TTITLE7=Somewhere I Have Never Travelled
TTITLE8=Siren Serenade
EXTD=YEAR: 1995
EXTT0=
EXTT1=
EXTT2=
EXTT3=
EXTT4=
EXTT5=
EXTT6=
EXTT7=
EXTT8=
PLAYORDER=
